{
    "asset" : {
        "generator" : "Khronos glTF Blender I/O v1.1.46",
        "version" : "2.0"
    },
    "scene" : 0,
    "scenes" : [
        {
            "name" : "Scene",
            "nodes" : [
                0,
                1,
                2,
                3,
                4,
                5,
                6
            ]
        }
    ],
    "nodes" : [
        {
            "name" : "butterfly profile curve",
            "rotation" : [
                0.7071068286895752,
                0,
                0,
                0.7071067094802856
            ]
        },
        {
            "mesh" : 0,
            "name" : "butterfly mesh",
            "rotation" : [
                0,
                0.7071068286895752,
                -0.7071067094802856,
                1.1520234011186403e-07
            ],
            "scale" : [
                0.5625,
                0.5625000596046448,
                0.5625000596046448
            ],
            "translation" : [
                -0.006972271483391523,
                0.9052855372428894,
                0.11834731698036194
            ]
        },
        {
            "mesh" : 1,
            "name" : "butterfly-wing-right",
            "rotation" : [
                -0.1830127090215683,
                -0.6830126643180847,
                -0.683012843132019,
                0.18301263451576233
            ],
            "scale" : [
                -0.5273440480232239,
                -0.5273439288139343,
                -0.5273439884185791
            ],
            "translation" : [
                -0.6736586093902588,
                1.210547685623169,
                0.48567456007003784
            ]
        },
        {
            "mesh" : 2,
            "name" : "butterfly-wing-right.001",
            "rotation" : [
                0.18301260471343994,
                0.683012843132019,
                -0.6830126643180847,
                0.18301282823085785
            ],
            "scale" : [
                0.5273436307907104,
                0.5273436307907104,
                0.5273438096046448
            ],
            "translation" : [
                0.664536714553833,
                1.210547685623169,
                0.48567456007003784
            ]
        },
        {
            "name" : "Camera",
            "rotation" : [
                0.9930009245872498,
                -0.0015713307075202465,
                -0.0005657064612023532,
                0.11809531599283218
            ],
            "translation" : [
                -0.0015975558198988438,
                2.2825260162353516,
                4.566143989562988
            ]
        },
        {
            "name" : "Light",
            "rotation" : [
                0.5232754945755005,
                0.3420339822769165,
                -0.7269423007965088,
                0.2841661870479584
            ],
            "scale" : [
                0.5625002384185791,
                0.5625001192092896,
                0.5625000596046448
            ],
            "translation" : [
                -0.0018913010135293007,
                0.8853306770324707,
                3.4179720878601074
            ]
        },
        {
            "name" : "Light.001",
            "rotation" : [
                0.5232754945755005,
                0.3420339822769165,
                -0.7269423007965088,
                0.2841661870479584
            ],
            "scale" : [
                0.5625002384185791,
                0.5625001192092896,
                0.5625000596046448
            ],
            "translation" : [
                -0.0018913010135293007,
                1.0498346090316772,
                -2.145176410675049
            ]
        }
    ],
    "materials" : [
        {
            "doubleSided" : true,
            "name" : "body",
            "pbrMetallicRoughness" : {}
        },
        {
            "doubleSided" : true,
            "emissiveFactor" : [
                0,
                0,
                0
            ],
            "name" : "Material.001",
            "pbrMetallicRoughness" : {
                "baseColorTexture" : {
                    "index" : 0,
                    "texCoord" : 0
                },
                "metallicFactor" : 0.4000000059604645,
                "roughnessFactor" : 0.8699999451637268
            }
        }
    ],
    "meshes" : [
        {
            "name" : "BezierCurve.001",
            "primitives" : [
                {
                    "attributes" : {
                        "POSITION" : 0,
                        "NORMAL" : 1,
                        "TEXCOORD_0" : 2
                    },
                    "indices" : 3,
                    "material" : 0
                }
            ]
        },
        {
            "name" : "BezierCurve.002",
            "primitives" : [
                {
                    "attributes" : {
                        "POSITION" : 4,
                        "NORMAL" : 5,
                        "TEXCOORD_0" : 6
                    },
                    "indices" : 7,
                    "material" : 1
                }
            ]
        },
        {
            "name" : "BezierCurve.004",
            "primitives" : [
                {
                    "attributes" : {
                        "POSITION" : 8,
                        "NORMAL" : 9,
                        "TEXCOORD_0" : 10
                    },
                    "indices" : 7,
                    "material" : 1
                }
            ]
        }
    ],
    "textures" : [
        {
            "source" : 0
        }
    ],
    "images" : [
        {
            "bufferView" : 8,
            "mimeType" : "image/png",
            "name" : "Image_0"
        }
    ],
    "accessors" : [
        {
            "bufferView" : 0,
            "componentType" : 5126,
            "count" : 1440,
            "max" : [
                0.11833836138248444,
                0.11254653334617615,
                0.7595574855804443
            ],
            "min" : [
                -0.11833834648132324,
                -0.11254663020372391,
                -0.7921829223632812
            ],
            "type" : "VEC3"
        },
        {
            "bufferView" : 1,
            "componentType" : 5126,
            "count" : 1440,
            "type" : "VEC3"
        },
        {
            "bufferView" : 2,
            "componentType" : 5126,
            "count" : 1440,
            "type" : "VEC2"
        },
        {
            "bufferView" : 3,
            "componentType" : 5123,
            "count" : 8580,
            "type" : "SCALAR"
        },
        {
            "bufferView" : 4,
            "componentType" : 5126,
            "count" : 2408,
            "max" : [
                1.4116184711456299,
                0.009240508079528809,
                1.729947566986084
            ],
            "min" : [
                -1.0344724655151367,
                -0.009232521057128906,
                -1.641378402709961
            ],
            "type" : "VEC3"
        },
        {
            "bufferView" : 5,
            "componentType" : 5126,
            "count" : 2408,
            "type" : "VEC3"
        },
        {
            "bufferView" : 6,
            "componentType" : 5126,
            "count" : 2408,
            "type" : "VEC2"
        },
        {
            "bufferView" : 7,
            "componentType" : 5123,
            "count" : 2640,
            "type" : "SCALAR"
        },
        {
            "bufferView" : 9,
            "componentType" : 5126,
            "count" : 2408,
            "max" : [
                1.4116184711456299,
                0.009240508079528809,
                1.729947566986084
            ],
            "min" : [
                -1.0344724655151367,
                -0.009232521057128906,
                -1.641378402709961
            ],
            "type" : "VEC3"
        },
        {
            "bufferView" : 10,
            "componentType" : 5126,
            "count" : 2408,
            "type" : "VEC3"
        },
        {
            "bufferView" : 11,
            "componentType" : 5126,
            "count" : 2408,
            "type" : "VEC2"
        }
    ],
    "bufferViews" : [
        {
            "buffer" : 0,
            "byteLength" : 17280,
            "byteOffset" : 0
        },
        {
            "buffer" : 0,
            "byteLength" : 17280,
            "byteOffset" : 17280
        },
        {
            "buffer" : 0,
            "byteLength" : 11520,
            "byteOffset" : 34560
        },
        {
            "buffer" : 0,
            "byteLength" : 17160,
            "byteOffset" : 46080
        },
        {
            "buffer" : 0,
            "byteLength" : 28896,
            "byteOffset" : 63240
        },
        {
            "buffer" : 0,
            "byteLength" : 28896,
            "byteOffset" : 92136
        },
        {
            "buffer" : 0,
            "byteLength" : 19264,
            "byteOffset" : 121032
        },
        {
            "buffer" : 0,
            "byteLength" : 5280,
            "byteOffset" : 140296
        },
        {
            "buffer" : 0,
            "byteLength" : 2601408,
            "byteOffset" : 145576
        },
        {
            "buffer" : 0,
            "byteLength" : 28896,
            "byteOffset" : 2746984
        },
        {
            "buffer" : 0,
            "byteLength" : 28896,
            "byteOffset" : 2775880
        },
        {
            "buffer" : 0,
            "byteLength" : 19264,
            "byteOffset" : 2804776
        }
    ],
    "buffers" : [
        {
            "byteLength" : 2824040,
            "uri" : "data:application/octet-stream;base64,"
        }
    ]
}
