{
    "asset" : {
        "generator" : "Khronos glTF Blender I/O v1.1.46",
        "version" : "2.0"
    },
    "scene" : 0,
    "scenes" : [
        {
            "name" : "Scene",
            "nodes" : [
                0,
                1,
                2,
                3,
                4,
                5,
                6
            ]
        }
    ],
    "nodes" : [
        {
            "name" : "butterfly profile curve"
        },
        {
            "mesh" : 0,
            "name" : "butterfly mesh",
            "rotation" : [
                0,
                -1,
                0,
                -1.6292068494294654e-07
            ],
            "scale" : [
                0.5625,
                0.5625,
                0.5625
            ],
            "translation" : [
                -0.006972271483391523,
                0.9052854180335999,
                0.1183471828699112
            ]
        },
        {
            "mesh" : 1,
            "name" : "butterfly-wing-right",
            "rotation" : [
                0,
                -0.9659258723258972,
                0,
                0.25881895422935486
            ],
            "scale" : [
                -0.4218750596046448,
                0.421875,
                0.4218750596046448
            ],
            "translation" : [
                -0.5398390889167786,
                1.210547685623169,
                0.4148258566856384
            ]
        },
        {
            "mesh" : 2,
            "name" : "butterfly-wing-right.001",
            "rotation" : [
                0,
                -0.9659257531166077,
                0,
                -0.25881925225257874
            ],
            "scale" : [
                0.42187491059303284,
                0.421875,
                0.42187491059303284
            ],
            "translation" : [
                0.5307171940803528,
                1.210547685623169,
                0.4148258566856384
            ]
        },
        {
            "name" : "Camera",
            "rotation" : [
                0.6186516880989075,
                -0.0007110863807611167,
                -0.0015111112734302878,
                0.7856636047363281
            ],
            "translation" : [
                -0.0015975558198988438,
                2.2825264930725098,
                4.566143035888672
            ]
        },
        {
            "name" : "Light",
            "rotation" : [
                0.16907575726509094,
                0.7558803558349609,
                -0.27217137813568115,
                0.570947527885437
            ],
            "scale" : [
                0.5625001192092896,
                0.5625,
                0.5625000596046448
            ],
            "translation" : [
                -0.0018913010135293007,
                0.8853310346603394,
                3.417971611022949
            ]
        },
        {
            "name" : "Light.001",
            "rotation" : [
                0.16907575726509094,
                0.7558803558349609,
                -0.27217137813568115,
                0.570947527885437
            ],
            "scale" : [
                0.5625001192092896,
                0.5625,
                0.5625000596046448
            ],
            "translation" : [
                -0.0018913010135293007,
                1.0498342514038086,
                -2.145176410675049
            ]
        }
    ],
    "materials" : [
        {
            "doubleSided" : true,
            "name" : "body",
            "pbrMetallicRoughness" : {}
        },
        {
            "doubleSided" : true,
            "emissiveFactor" : [
                0,
                0,
                0
            ],
            "name" : "Material.003",
            "pbrMetallicRoughness" : {
                "baseColorTexture" : {
                    "index" : 0,
                    "texCoord" : 0
                },
                "metallicFactor" : 0,
                "roughnessFactor" : 1
            }
        }
    ],
    "meshes" : [
        {
            "name" : "BezierCurve.001",
            "primitives" : [
                {
                    "attributes" : {
                        "POSITION" : 0,
                        "NORMAL" : 1,
                        "TEXCOORD_0" : 2
                    },
                    "indices" : 3,
                    "material" : 0
                }
            ]
        },
        {
            "name" : "BezierCurve.002",
            "primitives" : [
                {
                    "attributes" : {
                        "POSITION" : 4,
                        "NORMAL" : 5,
                        "TEXCOORD_0" : 6
                    },
                    "indices" : 7,
                    "material" : 1
                }
            ]
        },
        {
            "name" : "BezierCurve.004",
            "primitives" : [
                {
                    "attributes" : {
                        "POSITION" : 8,
                        "NORMAL" : 9,
                        "TEXCOORD_0" : 10
                    },
                    "indices" : 7,
                    "material" : 1
                }
            ]
        }
    ],
    "textures" : [
        {
            "source" : 0
        }
    ],
    "images" : [
        {
            "bufferView" : 8,
            "mimeType" : "image/png",
            "name" : "Material"
        }
    ],
    "accessors" : [
        {
            "bufferView" : 0,
            "componentType" : 5126,
            "count" : 1440,
            "max" : [
                0.11833836138248444,
                0.7921829223632812,
                0.11254653334617615
            ],
            "min" : [
                -0.11833834648132324,
                -0.7595574855804443,
                -0.11254663020372391
            ],
            "type" : "VEC3"
        },
        {
            "bufferView" : 1,
            "componentType" : 5126,
            "count" : 1440,
            "type" : "VEC3"
        },
        {
            "bufferView" : 2,
            "componentType" : 5126,
            "count" : 1440,
            "type" : "VEC2"
        },
        {
            "bufferView" : 3,
            "componentType" : 5123,
            "count" : 8580,
            "type" : "SCALAR"
        },
        {
            "bufferView" : 4,
            "componentType" : 5126,
            "count" : 1326,
            "max" : [
                1.4116184711456299,
                1.641378402709961,
                0.009240508079528809
            ],
            "min" : [
                -1.0344724655151367,
                -1.729947566986084,
                -0.009232521057128906
            ],
            "type" : "VEC3"
        },
        {
            "bufferView" : 5,
            "componentType" : 5126,
            "count" : 1326,
            "type" : "VEC3"
        },
        {
            "bufferView" : 6,
            "componentType" : 5126,
            "count" : 1326,
            "type" : "VEC2"
        },
        {
            "bufferView" : 7,
            "componentType" : 5123,
            "count" : 2640,
            "type" : "SCALAR"
        },
        {
            "bufferView" : 9,
            "componentType" : 5126,
            "count" : 1326,
            "max" : [
                1.4116184711456299,
                1.641378402709961,
                0.009240508079528809
            ],
            "min" : [
                -1.0344724655151367,
                -1.729947566986084,
                -0.009232521057128906
            ],
            "type" : "VEC3"
        },
        {
            "bufferView" : 10,
            "componentType" : 5126,
            "count" : 1326,
            "type" : "VEC3"
        },
        {
            "bufferView" : 11,
            "componentType" : 5126,
            "count" : 1326,
            "type" : "VEC2"
        }
    ],
    "bufferViews" : [
        {
            "buffer" : 0,
            "byteLength" : 17280,
            "byteOffset" : 0
        },
        {
            "buffer" : 0,
            "byteLength" : 17280,
            "byteOffset" : 17280
        },
        {
            "buffer" : 0,
            "byteLength" : 11520,
            "byteOffset" : 34560
        },
        {
            "buffer" : 0,
            "byteLength" : 17160,
            "byteOffset" : 46080
        },
        {
            "buffer" : 0,
            "byteLength" : 15912,
            "byteOffset" : 63240
        },
        {
            "buffer" : 0,
            "byteLength" : 15912,
            "byteOffset" : 79152
        },
        {
            "buffer" : 0,
            "byteLength" : 10608,
            "byteOffset" : 95064
        },
        {
            "buffer" : 0,
            "byteLength" : 5280,
            "byteOffset" : 105672
        },
        {
            "buffer" : 0,
            "byteLength" : 1354578,
            "byteOffset" : 110952
        },
        {
            "buffer" : 0,
            "byteLength" : 15912,
            "byteOffset" : 1465532
        },
        {
            "buffer" : 0,
            "byteLength" : 15912,
            "byteOffset" : 1481444
        },
        {
            "buffer" : 0,
            "byteLength" : 10608,
            "byteOffset" : 1497356
        }
    ],
    "buffers" : [
        {
            "byteLength" : 1507964,
            "uri" : "data:application/octet-stream;base64,"
        }
    ]
}
