{
    "asset" : {
        "generator" : "Khronos glTF Blender I/O v1.1.46",
        "version" : "2.0"
    },
    "scene" : 0,
    "scenes" : [
        {
            "name" : "Scene",
            "nodes" : [
                0,
                1,
                2,
                3,
                4,
                5,
                6
            ]
        }
    ],
    "nodes" : [
        {
            "name" : "butterfly profile curve",
            "rotation" : [
                0.7071068286895752,
                0,
                0,
                0.7071067094802856
            ]
        },
        {
            "mesh" : 0,
            "name" : "butterfly mesh",
            "rotation" : [
                0,
                0.7071068286895752,
                -0.7071067094802856,
                1.1520234011186403e-07
            ],
            "scale" : [
                0.5625,
                0.5625000596046448,
                0.5625000596046448
            ],
            "translation" : [
                0,
                0.7346479892730713,
                0
            ]
        },
        {
            "mesh" : 1,
            "name" : "butterfly wing left",
            "rotation" : [
                0.6830127239227295,
                0.18301275372505188,
                -0.1830126941204071,
                0.6830126643180847
            ],
            "scale" : [
                0.75,
                0.75,
                0.7500001192092896
            ],
            "translation" : [
                0.021246932446956635,
                0.026531323790550232,
                -0.02792682684957981
            ]
        },
        {
            "mesh" : 2,
            "name" : "butterfly wing left.001",
            "rotation" : [
                -0.6830126643180847,
                -0.18301273882389069,
                -0.1830127090215683,
                0.6830127239227295
            ],
            "scale" : [
                -0.75,
                -0.75,
                -0.75
            ],
            "translation" : [
                -0.018832538276910782,
                0.026531323790550232,
                -0.02792682684957981
            ]
        },
        {
            "name" : "Camera",
            "rotation" : [
                0.9930009245872498,
                -0.0015713312895968556,
                -0.0005657079163938761,
                0.11809531599283218
            ],
            "translation" : [
                -0.004415117669850588,
                2.5069518089294434,
                5.348150253295898
            ]
        },
        {
            "name" : "Light",
            "rotation" : [
                0.5232754945755005,
                0.3420339822769165,
                -0.7269423007965088,
                0.2841661870479584
            ],
            "scale" : [
                0.5625002384185791,
                0.5625001192092896,
                0.5625000596046448
            ],
            "translation" : [
                -0.0018913010135293007,
                0.8853306770324707,
                3.4179720878601074
            ]
        },
        {
            "name" : "Light.001",
            "rotation" : [
                0.5232754945755005,
                0.3420339822769165,
                -0.7269423007965088,
                0.2841661870479584
            ],
            "scale" : [
                0.5625002384185791,
                0.5625001192092896,
                0.5625000596046448
            ],
            "translation" : [
                -0.0018913010135293007,
                0.6435256600379944,
                -2.816202163696289
            ]
        }
    ],
    "materials" : [
        {
            "doubleSided" : true,
            "name" : "body",
            "pbrMetallicRoughness" : {}
        },
        {
            "doubleSided" : true,
            "emissiveFactor" : [
                0,
                0,
                0
            ],
            "name" : "Material.013",
            "pbrMetallicRoughness" : {
                "baseColorTexture" : {
                    "index" : 0,
                    "texCoord" : 0
                },
                "metallicFactor" : 0,
                "roughnessFactor" : 0.25
            }
        }
    ],
    "meshes" : [
        {
            "name" : "BezierCurve.001",
            "primitives" : [
                {
                    "attributes" : {
                        "POSITION" : 0,
                        "NORMAL" : 1,
                        "TEXCOORD_0" : 2
                    },
                    "indices" : 3,
                    "material" : 0
                }
            ]
        },
        {
            "name" : "BezierCurve",
            "primitives" : [
                {
                    "attributes" : {
                        "POSITION" : 4,
                        "NORMAL" : 5,
                        "TEXCOORD_0" : 6
                    },
                    "indices" : 7,
                    "material" : 1
                }
            ]
        },
        {
            "name" : "BezierCurve.005",
            "primitives" : [
                {
                    "attributes" : {
                        "POSITION" : 8,
                        "NORMAL" : 9,
                        "TEXCOORD_0" : 10
                    },
                    "indices" : 7,
                    "material" : 1
                }
            ]
        }
    ],
    "textures" : [
        {
            "source" : 0
        }
    ],
    "images" : [
        {
            "bufferView" : 8,
            "mimeType" : "image/png",
            "name" : "Image_0"
        }
    ],
    "accessors" : [
        {
            "bufferView" : 0,
            "componentType" : 5126,
            "count" : 1440,
            "max" : [
                0.11833836138248444,
                0.11254653334617615,
                0.7595574855804443
            ],
            "min" : [
                -0.11833834648132324,
                -0.11254663020372391,
                -0.7921829223632812
            ],
            "type" : "VEC3"
        },
        {
            "bufferView" : 1,
            "componentType" : 5126,
            "count" : 1440,
            "type" : "VEC3"
        },
        {
            "bufferView" : 2,
            "componentType" : 5126,
            "count" : 1440,
            "type" : "VEC2"
        },
        {
            "bufferView" : 3,
            "componentType" : 5123,
            "count" : 8580,
            "type" : "SCALAR"
        },
        {
            "bufferView" : 4,
            "componentType" : 5126,
            "count" : 1562,
            "max" : [
                -0.05174294114112854,
                2.903114477703639e-07,
                -0.26011234521865845
            ],
            "min" : [
                -1.0391643047332764,
                -0.01018439419567585,
                -2.1607160568237305
            ],
            "type" : "VEC3"
        },
        {
            "bufferView" : 5,
            "componentType" : 5126,
            "count" : 1562,
            "type" : "VEC3"
        },
        {
            "bufferView" : 6,
            "componentType" : 5126,
            "count" : 1562,
            "type" : "VEC2"
        },
        {
            "bufferView" : 7,
            "componentType" : 5123,
            "count" : 1584,
            "type" : "SCALAR"
        },
        {
            "bufferView" : 9,
            "componentType" : 5126,
            "count" : 1562,
            "max" : [
                -0.05174294114112854,
                2.903114477703639e-07,
                -0.26011234521865845
            ],
            "min" : [
                -1.0391643047332764,
                -0.01018439419567585,
                -2.1607160568237305
            ],
            "type" : "VEC3"
        },
        {
            "bufferView" : 10,
            "componentType" : 5126,
            "count" : 1562,
            "type" : "VEC3"
        },
        {
            "bufferView" : 11,
            "componentType" : 5126,
            "count" : 1562,
            "type" : "VEC2"
        }
    ],
    "bufferViews" : [
        {
            "buffer" : 0,
            "byteLength" : 17280,
            "byteOffset" : 0
        },
        {
            "buffer" : 0,
            "byteLength" : 17280,
            "byteOffset" : 17280
        },
        {
            "buffer" : 0,
            "byteLength" : 11520,
            "byteOffset" : 34560
        },
        {
            "buffer" : 0,
            "byteLength" : 17160,
            "byteOffset" : 46080
        },
        {
            "buffer" : 0,
            "byteLength" : 18744,
            "byteOffset" : 63240
        },
        {
            "buffer" : 0,
            "byteLength" : 18744,
            "byteOffset" : 81984
        },
        {
            "buffer" : 0,
            "byteLength" : 12496,
            "byteOffset" : 100728
        },
        {
            "buffer" : 0,
            "byteLength" : 3168,
            "byteOffset" : 113224
        },
        {
            "buffer" : 0,
            "byteLength" : 2856376,
            "byteOffset" : 116392
        },
        {
            "buffer" : 0,
            "byteLength" : 18744,
            "byteOffset" : 2972768
        },
        {
            "buffer" : 0,
            "byteLength" : 18744,
            "byteOffset" : 2991512
        },
        {
            "buffer" : 0,
            "byteLength" : 12496,
            "byteOffset" : 3010256
        }
    ],
    "buffers" : [
        {
            "byteLength" : 3022752,
            "uri" : "data:application/octet-stream;base64,"
        }
    ]
}
