{
    "asset" : {
        "generator" : "Khronos glTF Blender I/O v1.1.46",
        "version" : "2.0"
    },
    "scene" : 0,
    "scenes" : [
        {
            "name" : "Scene",
            "nodes" : [
                0,
                1,
                2,
                3,
                4,
                5,
                6,
                7
            ]
        }
    ],
    "nodes" : [
        {
            "name" : "butterfly profile curve",
            "rotation" : [
                0.7071068286895752,
                0,
                0,
                0.7071067094802856
            ]
        },
        {
            "name" : "butterfly wing left curve",
            "rotation" : [
                0.7071068286895752,
                0,
                0,
                0.7071067094802856
            ]
        },
        {
            "mesh" : 0,
            "name" : "butterfly body",
            "rotation" : [
                0.7071068286895752,
                0,
                0,
                0.7071067094802856
            ],
            "scale" : [
                0.5625,
                0.5625000596046448,
                0.5625000596046448
            ],
            "translation" : [
                3.0197203159332275e-05,
                0.00799494981765747,
                0.210595965385437
            ]
        },
        {
            "mesh" : 1,
            "name" : "butterfly wing left",
            "rotation" : [
                0.6830127239227295,
                0.18301273882389069,
                -0.18301266431808472,
                0.6830126643180847
            ],
            "scale" : [
                0.5625,
                0.24562017619609833,
                0.46319806575775146
            ],
            "translation" : [
                -0.7224363088607788,
                1.2359261512756348,
                0.618650496006012
            ]
        },
        {
            "mesh" : 2,
            "name" : "butterfly wing right",
            "rotation" : [
                0.183012455701828,
                0.683012843132019,
                -0.6830126047134399,
                0.18301251530647278
            ],
            "scale" : [
                0.5625000596046448,
                0.24562020599842072,
                0.46319806575775146
            ],
            "translation" : [
                0.7226132154464722,
                1.2255809307098389,
                0.6148399710655212
            ]
        },
        {
            "name" : "Light",
            "rotation" : [
                0.5232754945755005,
                0.34203392267227173,
                -0.7269423604011536,
                0.284166157245636
            ],
            "translation" : [
                -0.0002703666687011719,
                1.0541411638259888,
                3.921860456466675
            ]
        },
        {
            "name" : "Camera",
            "rotation" : [
                0.9929146766662598,
                -0.013183368369936943,
                0.0008153365924954414,
                0.1180938184261322
            ],
            "translation" : [
                0.011106759309768677,
                3.7859113216400146,
                7.861499309539795
            ]
        },
        {
            "name" : "Light.001",
            "rotation" : [
                0.5232754945755005,
                0.34203392267227173,
                -0.7269423604011536,
                0.284166157245636
            ],
            "translation" : [
                -0.0002703666687011719,
                1.988067865371704,
                -4.023083209991455
            ]
        }
    ],
    "materials" : [
        {
            "doubleSided" : true,
            "name" : "Material.002",
            "pbrMetallicRoughness" : {}
        },
        {
            "doubleSided" : true,
            "emissiveFactor" : [
                0,
                0,
                0
            ],
            "name" : "Material.005",
            "pbrMetallicRoughness" : {
                "baseColorTexture" : {
                    "index" : 0,
                    "texCoord" : 0
                },
                "metallicFactor" : 0,
                "roughnessFactor" : 0.9199999570846558
            }
        }
    ],
    "meshes" : [
        {
            "name" : "BezierCurve.001",
            "primitives" : [
                {
                    "attributes" : {
                        "POSITION" : 0,
                        "NORMAL" : 1,
                        "TEXCOORD_0" : 2
                    },
                    "indices" : 3,
                    "material" : 0
                }
            ]
        },
        {
            "name" : "BezierCurve.003",
            "primitives" : [
                {
                    "attributes" : {
                        "POSITION" : 4,
                        "NORMAL" : 5,
                        "TEXCOORD_0" : 6
                    },
                    "indices" : 7,
                    "material" : 1
                }
            ]
        },
        {
            "name" : "BezierCurve.002",
            "primitives" : [
                {
                    "attributes" : {
                        "POSITION" : 8,
                        "NORMAL" : 9,
                        "TEXCOORD_0" : 10
                    },
                    "indices" : 7,
                    "material" : 1
                }
            ]
        }
    ],
    "textures" : [
        {
            "source" : 0
        }
    ],
    "images" : [
        {
            "bufferView" : 8,
            "mimeType" : "image/png",
            "name" : "Image_0"
        }
    ],
    "accessors" : [
        {
            "bufferView" : 0,
            "componentType" : 5126,
            "count" : 1440,
            "max" : [
                0.11833835393190384,
                0.11254657804965973,
                -1.7540538311004639
            ],
            "min" : [
                -0.11833835393190384,
                -0.11254658550024033,
                -3.3057942390441895
            ],
            "type" : "VEC3"
        },
        {
            "bufferView" : 1,
            "componentType" : 5126,
            "count" : 1440,
            "type" : "VEC3"
        },
        {
            "bufferView" : 2,
            "componentType" : 5126,
            "count" : 1440,
            "type" : "VEC2"
        },
        {
            "bufferView" : 3,
            "componentType" : 5123,
            "count" : 8580,
            "type" : "SCALAR"
        },
        {
            "bufferView" : 4,
            "componentType" : 5126,
            "count" : 5686,
            "max" : [
                1.4766732454299927,
                0.07461357116699219,
                1.8884162902832031
            ],
            "min" : [
                -0.8832898139953613,
                -0.07456135749816895,
                -2.542416572570801
            ],
            "type" : "VEC3"
        },
        {
            "bufferView" : 5,
            "componentType" : 5126,
            "count" : 5686,
            "type" : "VEC3"
        },
        {
            "bufferView" : 6,
            "componentType" : 5126,
            "count" : 5686,
            "type" : "VEC2"
        },
        {
            "bufferView" : 7,
            "componentType" : 5123,
            "count" : 6336,
            "type" : "SCALAR"
        },
        {
            "bufferView" : 9,
            "componentType" : 5126,
            "count" : 5686,
            "max" : [
                1.4766732454299927,
                0.07461357116699219,
                1.8884162902832031
            ],
            "min" : [
                -0.8832898139953613,
                -0.07456135749816895,
                -2.542416572570801
            ],
            "type" : "VEC3"
        },
        {
            "bufferView" : 10,
            "componentType" : 5126,
            "count" : 5686,
            "type" : "VEC3"
        },
        {
            "bufferView" : 11,
            "componentType" : 5126,
            "count" : 5686,
            "type" : "VEC2"
        }
    ],
    "bufferViews" : [
        {
            "buffer" : 0,
            "byteLength" : 17280,
            "byteOffset" : 0
        },
        {
            "buffer" : 0,
            "byteLength" : 17280,
            "byteOffset" : 17280
        },
        {
            "buffer" : 0,
            "byteLength" : 11520,
            "byteOffset" : 34560
        },
        {
            "buffer" : 0,
            "byteLength" : 17160,
            "byteOffset" : 46080
        },
        {
            "buffer" : 0,
            "byteLength" : 68232,
            "byteOffset" : 63240
        },
        {
            "buffer" : 0,
            "byteLength" : 68232,
            "byteOffset" : 131472
        },
        {
            "buffer" : 0,
            "byteLength" : 45488,
            "byteOffset" : 199704
        },
        {
            "buffer" : 0,
            "byteLength" : 12672,
            "byteOffset" : 245192
        },
        {
            "buffer" : 0,
            "byteLength" : 1324086,
            "byteOffset" : 257864
        },
        {
            "buffer" : 0,
            "byteLength" : 68232,
            "byteOffset" : 1581952
        },
        {
            "buffer" : 0,
            "byteLength" : 68232,
            "byteOffset" : 1650184
        },
        {
            "buffer" : 0,
            "byteLength" : 45488,
            "byteOffset" : 1718416
        }
    ],
    "buffers" : [
        {
            "byteLength" : 1763904,
            "uri" : "data:application/octet-stream;base64,"
        }
    ]
}
