{
    "asset" : {
        "generator" : "Khronos glTF Blender I/O v1.1.46",
        "version" : "2.0"
    },
    "scene" : 0,
    "scenes" : [
        {
            "name" : "Scene",
            "nodes" : [
                0,
                1,
                2,
                3,
                4,
                5,
                6,
                7
            ]
        }
    ],
    "nodes" : [
        {
            "name" : "butterfly profile curve"
        },
        {
            "name" : "butterfly wing left curve"
        },
        {
            "mesh" : 0,
            "name" : "butterfly body",
            "scale" : [
                0.5625,
                0.5625,
                0.5625
            ],
            "translation" : [
                3.0197203159332275e-05,
                0.6122344136238098,
                0.21059584617614746
            ]
        },
        {
            "mesh" : 1,
            "name" : "butterfly wing left",
            "rotation" : [
                0,
                0.258819043636322,
                0,
                0.9659258127212524
            ],
            "scale" : [
                0.5625,
                0.421875,
                0.24562014639377594
            ],
            "translation" : [
                -0.7224363088607788,
                1.9017637968063354,
                0.6186501979827881
            ]
        },
        {
            "mesh" : 2,
            "name" : "butterfly wing right",
            "rotation" : [
                0,
                0.9659258723258972,
                0,
                0.2588188350200653
            ],
            "scale" : [
                0.5625,
                0.421875,
                0.24562016129493713
            ],
            "translation" : [
                0.7226132154464722,
                1.8923414945602417,
                0.6148396730422974
            ]
        },
        {
            "name" : "Light",
            "rotation" : [
                0.16907575726509094,
                0.7558803558349609,
                -0.27217137813568115,
                0.570947527885437
            ],
            "translation" : [
                -0.0002703666687011719,
                1.0541415214538574,
                3.9218597412109375
            ]
        },
        {
            "name" : "Camera",
            "rotation" : [
                0.6185916066169739,
                -0.009898585267364979,
                -0.008745508268475533,
                0.7856016755104065
            ],
            "translation" : [
                0.011106759309768677,
                3.785911798477173,
                7.86149787902832
            ]
        },
        {
            "name" : "Light.001",
            "rotation" : [
                0.16907575726509094,
                0.7558803558349609,
                -0.27217137813568115,
                0.570947527885437
            ],
            "translation" : [
                -0.0002703666687011719,
                1.9880670309066772,
                -4.023083209991455
            ]
        }
    ],
    "materials" : [
        {
            "doubleSided" : true,
            "name" : "Material.002",
            "pbrMetallicRoughness" : {}
        },
        {
            "doubleSided" : true,
            "emissiveFactor" : [
                0,
                0,
                0
            ],
            "name" : "Material.004",
            "pbrMetallicRoughness" : {
                "baseColorTexture" : {
                    "index" : 0,
                    "texCoord" : 0
                },
                "metallicFactor" : 0,
                "roughnessFactor" : 0.8999999761581421
            }
        }
    ],
    "meshes" : [
        {
            "name" : "BezierCurve.001",
            "primitives" : [
                {
                    "attributes" : {
                        "POSITION" : 0,
                        "NORMAL" : 1,
                        "TEXCOORD_0" : 2
                    },
                    "indices" : 3,
                    "material" : 0
                }
            ]
        },
        {
            "name" : "BezierCurve.003",
            "primitives" : [
                {
                    "attributes" : {
                        "POSITION" : 4,
                        "NORMAL" : 5,
                        "TEXCOORD_0" : 6
                    },
                    "indices" : 7,
                    "material" : 1
                }
            ]
        },
        {
            "name" : "BezierCurve.002",
            "primitives" : [
                {
                    "attributes" : {
                        "POSITION" : 8,
                        "NORMAL" : 9,
                        "TEXCOORD_0" : 10
                    },
                    "indices" : 7,
                    "material" : 1
                }
            ]
        }
    ],
    "textures" : [
        {
            "source" : 0
        }
    ],
    "images" : [
        {
            "bufferView" : 8,
            "mimeType" : "image/png",
            "name" : "butterfly-wing-2"
        }
    ],
    "accessors" : [
        {
            "bufferView" : 0,
            "componentType" : 5126,
            "count" : 1440,
            "max" : [
                0.11833835393190384,
                3.3057942390441895,
                0.11254657804965973
            ],
            "min" : [
                -0.11833835393190384,
                1.7540538311004639,
                -0.11254658550024033
            ],
            "type" : "VEC3"
        },
        {
            "bufferView" : 1,
            "componentType" : 5126,
            "count" : 1440,
            "type" : "VEC3"
        },
        {
            "bufferView" : 2,
            "componentType" : 5126,
            "count" : 1440,
            "type" : "VEC2"
        },
        {
            "bufferView" : 3,
            "componentType" : 5123,
            "count" : 8580,
            "type" : "SCALAR"
        },
        {
            "bufferView" : 4,
            "componentType" : 5126,
            "count" : 3172,
            "max" : [
                1.4766732454299927,
                2.542416572570801,
                0.07461357116699219
            ],
            "min" : [
                -0.8832898139953613,
                -1.8884162902832031,
                -0.07456135749816895
            ],
            "type" : "VEC3"
        },
        {
            "bufferView" : 5,
            "componentType" : 5126,
            "count" : 3172,
            "type" : "VEC3"
        },
        {
            "bufferView" : 6,
            "componentType" : 5126,
            "count" : 3172,
            "type" : "VEC2"
        },
        {
            "bufferView" : 7,
            "componentType" : 5123,
            "count" : 6336,
            "type" : "SCALAR"
        },
        {
            "bufferView" : 9,
            "componentType" : 5126,
            "count" : 3172,
            "max" : [
                1.4766732454299927,
                2.542416572570801,
                0.07461357116699219
            ],
            "min" : [
                -0.8832898139953613,
                -1.8884162902832031,
                -0.07456135749816895
            ],
            "type" : "VEC3"
        },
        {
            "bufferView" : 10,
            "componentType" : 5126,
            "count" : 3172,
            "type" : "VEC3"
        },
        {
            "bufferView" : 11,
            "componentType" : 5126,
            "count" : 3172,
            "type" : "VEC2"
        }
    ],
    "bufferViews" : [
        {
            "buffer" : 0,
            "byteLength" : 17280,
            "byteOffset" : 0
        },
        {
            "buffer" : 0,
            "byteLength" : 17280,
            "byteOffset" : 17280
        },
        {
            "buffer" : 0,
            "byteLength" : 11520,
            "byteOffset" : 34560
        },
        {
            "buffer" : 0,
            "byteLength" : 17160,
            "byteOffset" : 46080
        },
        {
            "buffer" : 0,
            "byteLength" : 38064,
            "byteOffset" : 63240
        },
        {
            "buffer" : 0,
            "byteLength" : 38064,
            "byteOffset" : 101304
        },
        {
            "buffer" : 0,
            "byteLength" : 25376,
            "byteOffset" : 139368
        },
        {
            "buffer" : 0,
            "byteLength" : 12672,
            "byteOffset" : 164744
        },
        {
            "buffer" : 0,
            "byteLength" : 2356786,
            "byteOffset" : 177416
        },
        {
            "buffer" : 0,
            "byteLength" : 38064,
            "byteOffset" : 2534204
        },
        {
            "buffer" : 0,
            "byteLength" : 38064,
            "byteOffset" : 2572268
        },
        {
            "buffer" : 0,
            "byteLength" : 25376,
            "byteOffset" : 2610332
        }
    ],
    "buffers" : [
        {
            "byteLength" : 2635708,
            "uri" : "data:application/octet-stream;base64,"
        }
    ]
}
