{
    "asset" : {
        "generator" : "Khronos glTF Blender I/O v1.1.46",
        "version" : "2.0"
    },
    "scene" : 0,
    "scenes" : [
        {
            "name" : "Scene",
            "nodes" : [
                0,
                1,
                2,
                3,
                4,
                5,
                6
            ]
        }
    ],
    "nodes" : [
        {
            "name" : "butterfly profile curve"
        },
        {
            "mesh" : 0,
            "name" : "butterfly mesh",
            "rotation" : [
                0,
                -1,
                0,
                -1.6292068494294654e-07
            ],
            "scale" : [
                0.5625,
                0.5625,
                0.5625
            ],
            "translation" : [
                0,
                0.9052854180335999,
                0
            ]
        },
        {
            "mesh" : 1,
            "name" : "butterfly wing left",
            "rotation" : [
                0,
                0.258819043636322,
                0,
                0.9659258127212524
            ],
            "scale" : [
                0.75,
                0.75,
                0.75
            ],
            "translation" : [
                0.021246932446956635,
                0.19716881215572357,
                -0.027926849201321602
            ]
        },
        {
            "mesh" : 2,
            "name" : "butterfly wing left.001",
            "rotation" : [
                0,
                -0.258819043636322,
                0,
                0.9659258127212524
            ],
            "scale" : [
                -0.75,
                0.75,
                0.75
            ],
            "translation" : [
                -0.018832538276910782,
                0.19716881215572357,
                -0.027926849201321602
            ]
        },
        {
            "name" : "Camera",
            "rotation" : [
                0.6186516880989075,
                -0.0007110859733074903,
                -0.0015111122047528625,
                0.7856636047363281
            ],
            "translation" : [
                -0.004415117669850588,
                2.5069522857666016,
                5.348149299621582
            ]
        },
        {
            "name" : "Light",
            "rotation" : [
                0.16907575726509094,
                0.7558803558349609,
                -0.27217137813568115,
                0.570947527885437
            ],
            "scale" : [
                0.5625001192092896,
                0.5625,
                0.5625000596046448
            ],
            "translation" : [
                -0.0018913010135293007,
                0.8853310346603394,
                3.417971611022949
            ]
        },
        {
            "name" : "Light.001",
            "rotation" : [
                0.16907575726509094,
                0.7558803558349609,
                -0.27217137813568115,
                0.570947527885437
            ],
            "scale" : [
                0.5625001192092896,
                0.5625,
                0.5625000596046448
            ],
            "translation" : [
                -0.0018913010135293007,
                0.643525242805481,
                -2.81620192527771
            ]
        }
    ],
    "materials" : [
        {
            "doubleSided" : true,
            "name" : "body",
            "pbrMetallicRoughness" : {}
        },
        {
            "doubleSided" : true,
            "emissiveFactor" : [
                0,
                0,
                0
            ],
            "name" : "Material.013",
            "pbrMetallicRoughness" : {
                "baseColorTexture" : {
                    "index" : 0,
                    "texCoord" : 0
                },
                "metallicFactor" : 0,
                "roughnessFactor" : 1
            }
        }
    ],
    "meshes" : [
        {
            "name" : "BezierCurve.001",
            "primitives" : [
                {
                    "attributes" : {
                        "POSITION" : 0,
                        "NORMAL" : 1,
                        "TEXCOORD_0" : 2
                    },
                    "indices" : 3,
                    "material" : 0
                }
            ]
        },
        {
            "name" : "BezierCurve",
            "primitives" : [
                {
                    "attributes" : {
                        "POSITION" : 4,
                        "NORMAL" : 5,
                        "TEXCOORD_0" : 6
                    },
                    "indices" : 7,
                    "material" : 1
                }
            ]
        },
        {
            "name" : "BezierCurve.005",
            "primitives" : [
                {
                    "attributes" : {
                        "POSITION" : 8,
                        "NORMAL" : 9,
                        "TEXCOORD_0" : 10
                    },
                    "indices" : 7,
                    "material" : 1
                }
            ]
        }
    ],
    "textures" : [
        {
            "source" : 0
        }
    ],
    "images" : [
        {
            "bufferView" : 8,
            "mimeType" : "image/png",
            "name" : "Material"
        }
    ],
    "accessors" : [
        {
            "bufferView" : 0,
            "componentType" : 5126,
            "count" : 1440,
            "max" : [
                0.11833836138248444,
                0.7921829223632812,
                0.11254653334617615
            ],
            "min" : [
                -0.11833834648132324,
                -0.7595574855804443,
                -0.11254663020372391
            ],
            "type" : "VEC3"
        },
        {
            "bufferView" : 1,
            "componentType" : 5126,
            "count" : 1440,
            "type" : "VEC3"
        },
        {
            "bufferView" : 2,
            "componentType" : 5126,
            "count" : 1440,
            "type" : "VEC2"
        },
        {
            "bufferView" : 3,
            "componentType" : 5123,
            "count" : 8580,
            "type" : "SCALAR"
        },
        {
            "bufferView" : 4,
            "componentType" : 5126,
            "count" : 798,
            "max" : [
                -0.05174294114112854,
                2.1607160568237305,
                2.903114477703639e-07
            ],
            "min" : [
                -1.0391643047332764,
                0.26011234521865845,
                -0.01018439419567585
            ],
            "type" : "VEC3"
        },
        {
            "bufferView" : 5,
            "componentType" : 5126,
            "count" : 798,
            "type" : "VEC3"
        },
        {
            "bufferView" : 6,
            "componentType" : 5126,
            "count" : 798,
            "type" : "VEC2"
        },
        {
            "bufferView" : 7,
            "componentType" : 5123,
            "count" : 1584,
            "type" : "SCALAR"
        },
        {
            "bufferView" : 9,
            "componentType" : 5126,
            "count" : 798,
            "max" : [
                -0.05174294114112854,
                2.1607160568237305,
                2.903114477703639e-07
            ],
            "min" : [
                -1.0391643047332764,
                0.26011234521865845,
                -0.01018439419567585
            ],
            "type" : "VEC3"
        },
        {
            "bufferView" : 10,
            "componentType" : 5126,
            "count" : 798,
            "type" : "VEC3"
        },
        {
            "bufferView" : 11,
            "componentType" : 5126,
            "count" : 798,
            "type" : "VEC2"
        }
    ],
    "bufferViews" : [
        {
            "buffer" : 0,
            "byteLength" : 17280,
            "byteOffset" : 0
        },
        {
            "buffer" : 0,
            "byteLength" : 17280,
            "byteOffset" : 17280
        },
        {
            "buffer" : 0,
            "byteLength" : 11520,
            "byteOffset" : 34560
        },
        {
            "buffer" : 0,
            "byteLength" : 17160,
            "byteOffset" : 46080
        },
        {
            "buffer" : 0,
            "byteLength" : 9576,
            "byteOffset" : 63240
        },
        {
            "buffer" : 0,
            "byteLength" : 9576,
            "byteOffset" : 72816
        },
        {
            "buffer" : 0,
            "byteLength" : 6384,
            "byteOffset" : 82392
        },
        {
            "buffer" : 0,
            "byteLength" : 3168,
            "byteOffset" : 88776
        },
        {
            "buffer" : 0,
            "byteLength" : 2856376,
            "byteOffset" : 91944
        },
        {
            "buffer" : 0,
            "byteLength" : 9576,
            "byteOffset" : 2948320
        },
        {
            "buffer" : 0,
            "byteLength" : 9576,
            "byteOffset" : 2957896
        },
        {
            "buffer" : 0,
            "byteLength" : 6384,
            "byteOffset" : 2967472
        }
    ],
    "buffers" : [
        {
            "byteLength" : 2973856,
            "uri" : "data:application/octet-stream;base64,"
        }
    ]
}
